<?xml version="1.0" encoding="UTF-8" standalone="no"?>
<!DOCTYPE svg PUBLIC "-//W3C//DTD SVG 1.1//EN" "http://www.w3.org/Graphics/SVG/1.1/DTD/svg11.dtd">
<svg class="railroad-diagram" width="386" height="94" viewBox="0 0 386 94" id="COMMENT" xmlns="http://www.w3.org/2000/svg" xmlns:xlink="http://www.w3.org/1999/xlink"><g transform="translate(.5 .5)"><g><path d="M20 37v20m10 -20v20m-10 -10h20"></path></g><g><path d="M40 47h0"></path><path d="M346 47h0"></path><path d="M40 47h20"></path><g><path d="M60 47h0"></path><g><path d="M60 47h10"></path><path d="M316 47h10"></path><g class="terminal "><path d="M70 47h0"></path><path d="M124 47h0"></path><rect x="70" y="36" width="54" height="22"></rect><text x="97" y="51">'//'</text></g><path d="M124 47h10"></path><g><path d="M134 47h0"></path><path d="M316 47h0"></path><path d="M134 47a10 10 0 0 0 10 -10v-7a10 10 0 0 1 10 -10"></path><g><path d="M154 20h142"></path></g><path d="M296 20a10 10 0 0 1 10 10v7a10 10 0 0 0 10 10"></path><path d="M134 47h20"></path><g><path d="M154 47h0"></path><path d="M296 47h0"></path><path d="M154 47h10"></path><g><path d="M164 47h0"></path><path d="M286 47h0"></path><g class="comment "><path d="M164 47h0"></path><path d="M195 47h0"></path><text x="179.5" y="52" class="comment">not</text></g><path d="M195 47h10"></path><path d="M205 47h10"></path><g class="terminal "><path d="M215 47h0"></path><path d="M286 47h0"></path><rect x="215" y="36" width="71" height="22"></rect><text x="250.5" y="51">[\r\n]</text></g></g><path d="M286 47h10"></path><path d="M164 47a10 10 0 0 0 -10 10v7a10 10 0 0 0 10 10"></path><g><path d="M164 74h122"></path></g><path d="M286 74a10 10 0 0 0 10 -10v-7a10 10 0 0 0 -10 -10"></path></g><path d="M296 47h20"></path></g></g><path d="M326 47h0"></path></g><path d="M326 47h20"></path></g><path d="M 346 47 h 20 m -10 -10 v 20 m 10 -20 v 20"></path></g><defs><style type="text/css"><![CDATA[
svg.railroad-diagram path { stroke-width: 2; stroke: darkgray; fill: rgba(0, 0, 0, 0);}/* All text except comments. */svg.railroad-diagram text { font: bold 12px Hack, "Source Code Pro", monospace; text-anchor: middle; fill: #404040;}/* Comment text */svg.railroad-diagram text.comment { font: italic 10px Hack, "Source Code Pro", monospace; fill: #404040;}/* The terminal boxes. */svg.railroad-diagram g.terminal rect { stroke-width: 2; stroke: #404040; fill: rgba(200, 200, 200, 1);}svg.railroad-diagram g.non-terminal rect { /* The non-terminal boxes. */ stroke-width: 2; stroke: #404040; fill: rgba(255, 255, 255, 1);}/* Multiple choice text, not working atm. */svg.railroad-diagram text.diagram-text { font-size: 12px Hack, "Source Code Pro", monospace; fill: red;}/* Multiple choice text, not working atm. */svg.railroad-diagram path.diagram-text { stroke-width: 1; stroke: red; fill: red; cursor: help;}
 ]]>
</style></defs></svg>