<?xml version="1.0" encoding="UTF-8" standalone="no"?>
<!DOCTYPE svg PUBLIC "-//W3C//DTD SVG 1.1//EN" "http://www.w3.org/Graphics/SVG/1.1/DTD/svg11.dtd">
<svg class="railroad-diagram" width="475.5" height="328" viewBox="0 0 475.5 328" id="expression" xmlns="http://www.w3.org/2000/svg" xmlns:xlink="http://www.w3.org/1999/xlink"><g transform="translate(.5 .5)"><g><path d="M20 21v20m0 -10h20"></path></g><g><path d="M40 31h0"></path><path d="M435.5 31h0"></path><path d="M40 31h20"></path><g><path d="M60 31h0"></path><g><path d="M60 31h10"></path><path d="M405.5 31h10"></path><g class="non-terminal "><path d="M70 31h0"></path><path d="M175 31h0"></path><rect x="70" y="20" width="105" height="22" rx="10" ry="10"></rect><text x="122.5" y="35">expression</text></g><path d="M175 31h10"></path><g><path d="M185 31h0"></path><path d="M290.5 31h0"></path><path d="M185 31h20"></path><g><path d="M205 31h0"></path><g><path d="M205 31h10"></path><path d="M260.5 31h10"></path><g class="terminal "><path d="M215 31h0"></path><path d="M260.5 31h0"></path><rect x="215" y="20" width="45.5" height="22"></rect><text x="237.75" y="35">'*'</text></g></g><path d="M270.5 31h0"></path></g><path d="M270.5 31h20"></path><path d="M185 31a10 10 0 0 1 10 10v18a10 10 0 0 0 10 10"></path><g><path d="M205 69h0"></path><g><path d="M205 69h10"></path><path d="M260.5 69h10"></path><g class="terminal "><path d="M215 69h0"></path><path d="M260.5 69h0"></path><rect x="215" y="58" width="45.5" height="22"></rect><text x="237.75" y="73">'/'</text></g></g><path d="M270.5 69h0"></path></g><path d="M270.5 69a10 10 0 0 0 10 -10v-18a10 10 0 0 1 10 -10"></path></g><path d="M290.5 31h10"></path><g class="non-terminal "><path d="M300.5 31h0"></path><path d="M405.5 31h0"></path><rect x="300.5" y="20" width="105" height="22" rx="10" ry="10"></rect><text x="353" y="35">expression</text></g></g><path d="M415.5 31h0"></path></g><path d="M415.5 31h20"></path><path d="M40 31a10 10 0 0 1 10 10v56a10 10 0 0 0 10 10"></path><g><path d="M60 107h0"></path><g><path d="M60 107h10"></path><path d="M405.5 107h10"></path><g class="non-terminal "><path d="M70 107h0"></path><path d="M175 107h0"></path><rect x="70" y="96" width="105" height="22" rx="10" ry="10"></rect><text x="122.5" y="111">expression</text></g><path d="M175 107h10"></path><g><path d="M185 107h0"></path><path d="M290.5 107h0"></path><path d="M185 107h20"></path><g><path d="M205 107h0"></path><g><path d="M205 107h10"></path><path d="M260.5 107h10"></path><g class="terminal "><path d="M215 107h0"></path><path d="M260.5 107h0"></path><rect x="215" y="96" width="45.5" height="22"></rect><text x="237.75" y="111">'+'</text></g></g><path d="M270.5 107h0"></path></g><path d="M270.5 107h20"></path><path d="M185 107a10 10 0 0 1 10 10v18a10 10 0 0 0 10 10"></path><g><path d="M205 145h0"></path><g><path d="M205 145h10"></path><path d="M260.5 145h10"></path><g class="terminal "><path d="M215 145h0"></path><path d="M260.5 145h0"></path><rect x="215" y="134" width="45.5" height="22"></rect><text x="237.75" y="149">'-'</text></g></g><path d="M270.5 145h0"></path></g><path d="M270.5 145a10 10 0 0 0 10 -10v-18a10 10 0 0 1 10 -10"></path></g><path d="M290.5 107h10"></path><g class="non-terminal "><path d="M300.5 107h0"></path><path d="M405.5 107h0"></path><rect x="300.5" y="96" width="105" height="22" rx="10" ry="10"></rect><text x="353" y="111">expression</text></g></g><path d="M415.5 107h0"></path></g><path d="M415.5 107a10 10 0 0 0 10 -10v-56a10 10 0 0 1 10 -10"></path><path d="M40 31a10 10 0 0 1 10 10v132a10 10 0 0 0 10 10"></path><g><path d="M60 183h49.75"></path><g><path d="M109.75 183h10"></path><path d="M355.75 183h10"></path><g class="terminal "><path d="M119.75 183h0"></path><path d="M165.25 183h0"></path><rect x="119.75" y="172" width="45.5" height="22"></rect><text x="142.5" y="187">'('</text></g><path d="M165.25 183h10"></path><path d="M175.25 183h10"></path><g class="non-terminal "><path d="M185.25 183h0"></path><path d="M290.25 183h0"></path><rect x="185.25" y="172" width="105" height="22" rx="10" ry="10"></rect><text x="237.75" y="187">expression</text></g><path d="M290.25 183h10"></path><path d="M300.25 183h10"></path><g class="terminal "><path d="M310.25 183h0"></path><path d="M355.75 183h0"></path><rect x="310.25" y="172" width="45.5" height="22"></rect><text x="333" y="187">')'</text></g></g><path d="M365.75 183h49.75"></path></g><path d="M415.5 183a10 10 0 0 0 10 -10v-132a10 10 0 0 1 10 -10"></path><path d="M40 31a10 10 0 0 1 10 10v170a10 10 0 0 0 10 10"></path><g><path d="M60 221h149.25"></path><g><path d="M209.25 221h10"></path><path d="M256.25 221h10"></path><g class="terminal "><path d="M219.25 221h0"></path><path d="M256.25 221h0"></path><rect x="219.25" y="210" width="37" height="22"></rect><text x="237.75" y="225">ID</text></g></g><path d="M266.25 221h149.25"></path></g><path d="M415.5 221a10 10 0 0 0 10 -10v-170a10 10 0 0 1 10 -10"></path><path d="M40 31a10 10 0 0 1 10 10v208a10 10 0 0 0 10 10"></path><g><path d="M60 259h145"></path><g><path d="M205 259h10"></path><path d="M260.5 259h10"></path><g class="terminal "><path d="M215 259h0"></path><path d="M260.5 259h0"></path><rect x="215" y="248" width="45.5" height="22"></rect><text x="237.75" y="263">INT</text></g></g><path d="M270.5 259h145"></path></g><path d="M415.5 259a10 10 0 0 0 10 -10v-208a10 10 0 0 1 10 -10"></path><path d="M40 31a10 10 0 0 1 10 10v246a10 10 0 0 0 10 10"></path><g><path d="M60 297h132.25"></path><g><path d="M192.25 297h10"></path><path d="M273.25 297h10"></path><g class="terminal "><path d="M202.25 297h0"></path><path d="M273.25 297h0"></path><rect x="202.25" y="286" width="71" height="22"></rect><text x="237.75" y="301">STRING</text></g></g><path d="M283.25 297h132.25"></path></g><path d="M415.5 297a10 10 0 0 0 10 -10v-246a10 10 0 0 1 10 -10"></path></g><path d="M 435.5 31 h 20 m 0 -10 v 20"></path></g><defs><style type="text/css"><![CDATA[
svg.railroad-diagram path { stroke-width: 2; stroke: darkgray; fill: rgba(0, 0, 0, 0);}/* All text except comments. */svg.railroad-diagram text { font: bold 12px Hack, "Source Code Pro", monospace; text-anchor: middle; fill: #404040;}/* Comment text */svg.railroad-diagram text.comment { font: italic 10px Hack, "Source Code Pro", monospace; fill: #404040;}/* The terminal boxes. */svg.railroad-diagram g.terminal rect { stroke-width: 2; stroke: #404040; fill: rgba(200, 200, 200, 1);}svg.railroad-diagram g.non-terminal rect { /* The non-terminal boxes. */ stroke-width: 2; stroke: #404040; fill: rgba(255, 255, 255, 1);}/* Multiple choice text, not working atm. */svg.railroad-diagram text.diagram-text { font-size: 12px Hack, "Source Code Pro", monospace; fill: red;}/* Multiple choice text, not working atm. */svg.railroad-diagram path.diagram-text { stroke-width: 1; stroke: red; fill: red; cursor: help;}
 ]]>
</style></defs></svg>