<?xml version="1.0" encoding="UTF-8" standalone="no"?>
<!DOCTYPE svg PUBLIC "-//W3C//DTD SVG 1.1//EN" "http://www.w3.org/Graphics/SVG/1.1/DTD/svg11.dtd">
<svg class="railroad-diagram" width="737.5" height="94" viewBox="0 0 737.5 94" id="ifStatement" xmlns="http://www.w3.org/2000/svg" xmlns:xlink="http://www.w3.org/1999/xlink"><g transform="translate(.5 .5)"><g><path d="M20 37v20m0 -10h20"></path></g><g><path d="M40 47h0"></path><path d="M697.5 47h0"></path><path d="M40 47h20"></path><g><path d="M60 47h0"></path><g><path d="M60 47h10"></path><path d="M667.5 47h10"></path><g class="terminal "><path d="M70 47h0"></path><path d="M124 47h0"></path><rect x="70" y="36" width="54" height="22"></rect><text x="97" y="51">'if'</text></g><path d="M124 47h10"></path><path d="M134 47h10"></path><g class="terminal "><path d="M144 47h0"></path><path d="M189.5 47h0"></path><rect x="144" y="36" width="45.5" height="22"></rect><text x="166.75" y="51">'('</text></g><path d="M189.5 47h10"></path><path d="M199.5 47h10"></path><g class="non-terminal "><path d="M209.5 47h0"></path><path d="M314.5 47h0"></path><rect x="209.5" y="36" width="105" height="22" rx="10" ry="10"></rect><text x="262" y="51">expression</text></g><path d="M314.5 47h10"></path><path d="M324.5 47h10"></path><g class="terminal "><path d="M334.5 47h0"></path><path d="M380 47h0"></path><rect x="334.5" y="36" width="45.5" height="22"></rect><text x="357.25" y="51">')'</text></g><path d="M380 47h10"></path><path d="M390 47h10"></path><g class="terminal "><path d="M400 47h0"></path><path d="M445.5 47h0"></path><rect x="400" y="36" width="45.5" height="22"></rect><text x="422.75" y="51">'{'</text></g><path d="M445.5 47h10"></path><g><path d="M455.5 47h0"></path><path d="M612 47h0"></path><path d="M455.5 47a10 10 0 0 0 10 -10v-7a10 10 0 0 1 10 -10"></path><g><path d="M475.5 20h116.5"></path></g><path d="M592 20a10 10 0 0 1 10 10v7a10 10 0 0 0 10 10"></path><path d="M455.5 47h20"></path><g><path d="M475.5 47h0"></path><path d="M592 47h0"></path><path d="M475.5 47h10"></path><g class="non-terminal "><path d="M485.5 47h0"></path><path d="M582 47h0"></path><rect x="485.5" y="36" width="96.5" height="22" rx="10" ry="10"></rect><text x="533.75" y="51">statement</text></g><path d="M582 47h10"></path><path d="M485.5 47a10 10 0 0 0 -10 10v7a10 10 0 0 0 10 10"></path><g><path d="M485.5 74h96.5"></path></g><path d="M582 74a10 10 0 0 0 10 -10v-7a10 10 0 0 0 -10 -10"></path></g><path d="M592 47h20"></path></g><path d="M612 47h10"></path><g class="terminal "><path d="M622 47h0"></path><path d="M667.5 47h0"></path><rect x="622" y="36" width="45.5" height="22"></rect><text x="644.75" y="51">'}'</text></g></g><path d="M677.5 47h0"></path></g><path d="M677.5 47h20"></path></g><path d="M 697.5 47 h 20 m 0 -10 v 20"></path></g><defs><style type="text/css"><![CDATA[
svg.railroad-diagram path { stroke-width: 2; stroke: darkgray; fill: rgba(0, 0, 0, 0);}/* All text except comments. */svg.railroad-diagram text { font: bold 12px Hack, "Source Code Pro", monospace; text-anchor: middle; fill: #404040;}/* Comment text */svg.railroad-diagram text.comment { font: italic 10px Hack, "Source Code Pro", monospace; fill: #404040;}/* The terminal boxes. */svg.railroad-diagram g.terminal rect { stroke-width: 2; stroke: #404040; fill: rgba(200, 200, 200, 1);}svg.railroad-diagram g.non-terminal rect { /* The non-terminal boxes. */ stroke-width: 2; stroke: #404040; fill: rgba(255, 255, 255, 1);}/* Multiple choice text, not working atm. */svg.railroad-diagram text.diagram-text { font-size: 12px Hack, "Source Code Pro", monospace; fill: red;}/* Multiple choice text, not working atm. */svg.railroad-diagram path.diagram-text { stroke-width: 1; stroke: red; fill: red; cursor: help;}
 ]]>
</style></defs></svg>