<?xml version="1.0" encoding="UTF-8" standalone="no"?>
<!DOCTYPE svg PUBLIC "-//W3C//DTD SVG 1.1//EN" "http://www.w3.org/Graphics/SVG/1.1/DTD/svg11.dtd">
<svg class="railroad-diagram" width="524" height="62" viewBox="0 0 524 62" id="movementStatement" xmlns="http://www.w3.org/2000/svg" xmlns:xlink="http://www.w3.org/1999/xlink"><g transform="translate(.5 .5)"><g><path d="M20 21v20m0 -10h20"></path></g><g><path d="M40 31h0"></path><path d="M484 31h0"></path><path d="M40 31h20"></path><g><path d="M60 31h0"></path><g><path d="M60 31h10"></path><path d="M454 31h10"></path><g class="terminal "><path d="M70 31h0"></path><path d="M141 31h0"></path><rect x="70" y="20" width="71" height="22"></rect><text x="105.5" y="35">'move'</text></g><path d="M141 31h10"></path><path d="M151 31h10"></path><g class="terminal "><path d="M161 31h0"></path><path d="M198 31h0"></path><rect x="161" y="20" width="37" height="22"></rect><text x="179.5" y="35">ID</text></g><path d="M198 31h10"></path><path d="M208 31h10"></path><g class="terminal "><path d="M218 31h0"></path><path d="M272 31h0"></path><rect x="218" y="20" width="54" height="22"></rect><text x="245" y="35">'to'</text></g><path d="M272 31h10"></path><path d="M282 31h10"></path><g class="terminal "><path d="M292 31h0"></path><path d="M388.5 31h0"></path><rect x="292" y="20" width="96.5" height="22"></rect><text x="340.25" y="35">AMBIENTID</text></g><path d="M388.5 31h10"></path><path d="M398.5 31h10"></path><g class="terminal "><path d="M408.5 31h0"></path><path d="M454 31h0"></path><rect x="408.5" y="20" width="45.5" height="22"></rect><text x="431.25" y="35">';'</text></g></g><path d="M464 31h0"></path></g><path d="M464 31h20"></path></g><path d="M 484 31 h 20 m 0 -10 v 20"></path></g><defs><style type="text/css"><![CDATA[
svg.railroad-diagram path { stroke-width: 2; stroke: darkgray; fill: rgba(0, 0, 0, 0);}/* All text except comments. */svg.railroad-diagram text { font: bold 12px Hack, "Source Code Pro", monospace; text-anchor: middle; fill: #404040;}/* Comment text */svg.railroad-diagram text.comment { font: italic 10px Hack, "Source Code Pro", monospace; fill: #404040;}/* The terminal boxes. */svg.railroad-diagram g.terminal rect { stroke-width: 2; stroke: #404040; fill: rgba(200, 200, 200, 1);}svg.railroad-diagram g.non-terminal rect { /* The non-terminal boxes. */ stroke-width: 2; stroke: #404040; fill: rgba(255, 255, 255, 1);}/* Multiple choice text, not working atm. */svg.railroad-diagram text.diagram-text { font-size: 12px Hack, "Source Code Pro", monospace; fill: red;}/* Multiple choice text, not working atm. */svg.railroad-diagram path.diagram-text { stroke-width: 1; stroke: red; fill: red; cursor: help;}
 ]]>
</style></defs></svg>