<?xml version="1.0" encoding="UTF-8" standalone="no"?>
<!DOCTYPE svg PUBLIC "-//W3C//DTD SVG 1.1//EN" "http://www.w3.org/Graphics/SVG/1.1/DTD/svg11.dtd">
<svg class="railroad-diagram" width="347" height="442" viewBox="0 0 347 442" id="statement" xmlns="http://www.w3.org/2000/svg" xmlns:xlink="http://www.w3.org/1999/xlink"><g transform="translate(.5 .5)"><g><path d="M20 21v20m0 -10h20"></path></g><g><path d="M40 31h0"></path><path d="M307 31h0"></path><path d="M40 31h20"></path><g><path d="M60 31h17"></path><g><path d="M77 31h10"></path><path d="M260 31h10"></path><g class="non-terminal "><path d="M87 31h0"></path><path d="M260 31h0"></path><rect x="87" y="20" width="173" height="22" rx="10" ry="10"></rect><text x="173.5" y="35">processDeclaration</text></g></g><path d="M270 31h17"></path></g><path d="M287 31h20"></path><path d="M40 31a10 10 0 0 1 10 10v18a10 10 0 0 0 10 10"></path><g><path d="M60 69h17"></path><g><path d="M77 69h10"></path><path d="M260 69h10"></path><g class="non-terminal "><path d="M87 69h0"></path><path d="M260 69h0"></path><rect x="87" y="58" width="173" height="22" rx="10" ry="10"></rect><text x="173.5" y="73">ambientDeclaration</text></g></g><path d="M270 69h17"></path></g><path d="M287 69a10 10 0 0 0 10 -10v-18a10 10 0 0 1 10 -10"></path><path d="M40 31a10 10 0 0 1 10 10v56a10 10 0 0 0 10 10"></path><g><path d="M60 107h21.25"></path><g><path d="M81.25 107h10"></path><path d="M255.75 107h10"></path><g class="non-terminal "><path d="M91.25 107h0"></path><path d="M255.75 107h0"></path><rect x="91.25" y="96" width="164.5" height="22" rx="10" ry="10"></rect><text x="173.5" y="111">movementStatement</text></g></g><path d="M265.75 107h21.25"></path></g><path d="M287 107a10 10 0 0 0 10 -10v-56a10 10 0 0 1 10 -10"></path><path d="M40 31a10 10 0 0 1 10 10v94a10 10 0 0 0 10 10"></path><g><path d="M60 145h0"></path><g><path d="M60 145h10"></path><path d="M277 145h10"></path><g class="non-terminal "><path d="M70 145h0"></path><path d="M277 145h0"></path><rect x="70" y="134" width="207" height="22" rx="10" ry="10"></rect><text x="173.5" y="149">communicationStatement</text></g></g><path d="M287 145h0"></path></g><path d="M287 145a10 10 0 0 0 10 -10v-94a10 10 0 0 1 10 -10"></path><path d="M40 31a10 10 0 0 1 10 10v132a10 10 0 0 0 10 10"></path><g><path d="M60 183h46.75"></path><g><path d="M106.75 183h10"></path><path d="M230.25 183h10"></path><g class="non-terminal "><path d="M116.75 183h0"></path><path d="M230.25 183h0"></path><rect x="116.75" y="172" width="113.5" height="22" rx="10" ry="10"></rect><text x="173.5" y="187">inStatement</text></g></g><path d="M240.25 183h46.75"></path></g><path d="M287 183a10 10 0 0 0 10 -10v-132a10 10 0 0 1 10 -10"></path><path d="M40 31a10 10 0 0 1 10 10v170a10 10 0 0 0 10 10"></path><g><path d="M60 221h42.5"></path><g><path d="M102.5 221h10"></path><path d="M234.5 221h10"></path><g class="non-terminal "><path d="M112.5 221h0"></path><path d="M234.5 221h0"></path><rect x="112.5" y="210" width="122" height="22" rx="10" ry="10"></rect><text x="173.5" y="225">outStatement</text></g></g><path d="M244.5 221h42.5"></path></g><path d="M287 221a10 10 0 0 0 10 -10v-170a10 10 0 0 1 10 -10"></path><path d="M40 31a10 10 0 0 1 10 10v208a10 10 0 0 0 10 10"></path><g><path d="M60 259h38.25"></path><g><path d="M98.25 259h10"></path><path d="M238.75 259h10"></path><g class="non-terminal "><path d="M108.25 259h0"></path><path d="M238.75 259h0"></path><rect x="108.25" y="248" width="130.5" height="22" rx="10" ry="10"></rect><text x="173.5" y="263">openStatement</text></g></g><path d="M248.75 259h38.25"></path></g><path d="M287 259a10 10 0 0 0 10 -10v-208a10 10 0 0 1 10 -10"></path><path d="M40 31a10 10 0 0 1 10 10v246a10 10 0 0 0 10 10"></path><g><path d="M60 297h38.25"></path><g><path d="M98.25 297h10"></path><path d="M238.75 297h10"></path><g class="non-terminal "><path d="M108.25 297h0"></path><path d="M238.75 297h0"></path><rect x="108.25" y="286" width="130.5" height="22" rx="10" ry="10"></rect><text x="173.5" y="301">callStatement</text></g></g><path d="M248.75 297h38.25"></path></g><path d="M287 297a10 10 0 0 0 10 -10v-246a10 10 0 0 1 10 -10"></path><path d="M40 31a10 10 0 0 1 10 10v284a10 10 0 0 0 10 10"></path><g><path d="M60 335h34"></path><g><path d="M94 335h10"></path><path d="M243 335h10"></path><g class="non-terminal "><path d="M104 335h0"></path><path d="M243 335h0"></path><rect x="104" y="324" width="139" height="22" rx="10" ry="10"></rect><text x="173.5" y="339">printStatement</text></g></g><path d="M253 335h34"></path></g><path d="M287 335a10 10 0 0 0 10 -10v-284a10 10 0 0 1 10 -10"></path><path d="M40 31a10 10 0 0 1 10 10v322a10 10 0 0 0 10 10"></path><g><path d="M60 373h46.75"></path><g><path d="M106.75 373h10"></path><path d="M230.25 373h10"></path><g class="non-terminal "><path d="M116.75 373h0"></path><path d="M230.25 373h0"></path><rect x="116.75" y="362" width="113.5" height="22" rx="10" ry="10"></rect><text x="173.5" y="377">ifStatement</text></g></g><path d="M240.25 373h46.75"></path></g><path d="M287 373a10 10 0 0 0 10 -10v-322a10 10 0 0 1 10 -10"></path><path d="M40 31a10 10 0 0 1 10 10v360a10 10 0 0 0 10 10"></path><g><path d="M60 411h12.75"></path><g><path d="M72.75 411h10"></path><path d="M264.25 411h10"></path><g class="non-terminal "><path d="M82.75 411h0"></path><path d="M264.25 411h0"></path><rect x="82.75" y="400" width="181.5" height="22" rx="10" ry="10"></rect><text x="173.5" y="415">variableDeclaration</text></g></g><path d="M274.25 411h12.75"></path></g><path d="M287 411a10 10 0 0 0 10 -10v-360a10 10 0 0 1 10 -10"></path></g><path d="M 307 31 h 20 m 0 -10 v 20"></path></g><defs><style type="text/css"><![CDATA[
svg.railroad-diagram path { stroke-width: 2; stroke: darkgray; fill: rgba(0, 0, 0, 0);}/* All text except comments. */svg.railroad-diagram text { font: bold 12px Hack, "Source Code Pro", monospace; text-anchor: middle; fill: #404040;}/* Comment text */svg.railroad-diagram text.comment { font: italic 10px Hack, "Source Code Pro", monospace; fill: #404040;}/* The terminal boxes. */svg.railroad-diagram g.terminal rect { stroke-width: 2; stroke: #404040; fill: rgba(200, 200, 200, 1);}svg.railroad-diagram g.non-terminal rect { /* The non-terminal boxes. */ stroke-width: 2; stroke: #404040; fill: rgba(255, 255, 255, 1);}/* Multiple choice text, not working atm. */svg.railroad-diagram text.diagram-text { font-size: 12px Hack, "Source Code Pro", monospace; fill: red;}/* Multiple choice text, not working atm. */svg.railroad-diagram path.diagram-text { stroke-width: 1; stroke: red; fill: red; cursor: help;}
 ]]>
</style></defs></svg>