<?xml version="1.0" encoding="UTF-8" standalone="no"?>
<!DOCTYPE svg PUBLIC "-//W3C//DTD SVG 1.1//EN" "http://www.w3.org/Graphics/SVG/1.1/DTD/svg11.dtd">
<svg style="width: 100%; height: 100vh;" xmlns="http://www.w3.org/2000/svg" version="1.1" viewBox="0 0 1000 1000"><g transform="translate(-345.6433081418695,513.9288191496032) scale(1.9640768137162141)"><g><path class="link" d="M85.163,-441.868L81.55,-358.516C77.938,-275.163,70.713,-108.458,84.394,-104.441C98.074,-100.424,132.661,-259.095,149.955,-338.43L167.248,-417.766"></path><path class="link" d="M85.163,-441.868L78.066,-359.018C70.969,-276.167,56.775,-110.467,42.582,-55.233C28.388,0,14.194,-55.233,0,-110.467C-14.194,-165.7,-28.388,-220.934,-42.582,-276.167C-56.775,-331.401,-70.969,-386.634,-78.066,-414.251L-85.163,-441.868"></path><path class="link" d="M167.248,-417.766L153.249,-337.111C139.25,-256.457,111.252,-95.149,123.925,-88.615C136.598,-82.082,189.943,-230.323,216.616,-304.444L243.288,-378.564"></path><path class="link" d="M167.248,-417.766L156.708,-333.119C146.168,-248.473,125.089,-79.18,165.436,-40.709C205.784,-2.237,307.559,-94.587,358.447,-140.762L409.334,-186.937"></path><path class="link" d="M167.248,-417.766L157.545,-329.671C147.842,-241.576,128.435,-65.386,175.475,0.673C222.516,66.732,336.003,22.66,392.747,0.624L449.49,-21.412"></path><path class="link" d="M167.248,-417.766L157.46,-327.89C147.672,-238.015,128.096,-58.265,174.458,22.036C220.82,102.337,333.12,83.189,389.27,73.616L445.42,64.042"></path><path class="link" d="M167.248,-417.766L157.04,-326.158C146.832,-234.551,126.415,-51.337,169.415,42.821C212.416,136.978,318.833,142.08,372.042,144.63L425.25,147.181"></path><path class="link" d="M167.248,-417.766L156.299,-324.537C145.351,-231.309,123.453,-44.852,160.531,62.276C197.608,169.403,293.66,197.202,341.686,211.101L389.711,225"></path><path class="link" d="M167.248,-417.766L155.266,-323.085C143.283,-228.405,119.318,-39.045,148.125,79.697C176.931,198.44,258.509,246.563,299.298,270.625L340.087,294.687"></path><path class="link" d="M167.248,-417.766L153.976,-321.855C140.703,-225.945,114.158,-34.125,132.646,94.457C151.133,223.038,214.652,288.381,246.412,321.052L278.172,353.724"></path><path class="link" d="M167.248,-417.766L152.476,-320.892C137.705,-224.018,108.161,-30.271,114.653,106.02C121.146,242.31,163.674,321.143,184.938,360.559L206.202,399.976"></path><path class="link" d="M167.248,-417.766L145.539,-320.229C123.83,-222.693,80.413,-27.621,31.408,113.969C-17.597,255.558,-72.188,343.665,-99.484,387.718L-126.78,431.772"></path><path class="link" d="M167.248,-417.766L141.095,-323.085C114.942,-228.405,62.637,-39.045,-21.919,79.697C-106.475,198.44,-223.281,246.563,-281.684,270.625L-340.087,294.687"></path><path class="link" d="M167.248,-417.766L149.072,-319.892C130.895,-222.019,94.542,-26.272,73.797,118.016C53.051,262.304,47.913,355.133,45.344,401.548L42.775,447.962"></path><path class="link" d="M243.288,-378.564L219.601,-302.525C195.914,-226.486,148.539,-74.408,159.747,-65.594C170.955,-56.78,240.745,-191.23,275.64,-258.455L310.536,-325.68"></path><path class="link" d="M243.288,-378.564L204.021,-297.95C164.753,-217.337,86.218,-56.109,-27.216,-10.697C-140.65,34.715,-288.983,-35.688,-363.149,-70.89L-437.315,-106.092"></path><path class="link" d="M310.536,-325.68L274.056,-259.272C237.577,-192.864,164.618,-60.047,140.737,-75.394C116.855,-90.742,142.052,-254.254,154.65,-336.01L167.248,-417.766"></path><path class="link" d="M310.536,-325.68L278.208,-256.007C245.881,-186.333,181.227,-46.985,190.564,-36.21C199.902,-25.434,283.23,-143.23,324.895,-202.128L366.559,-261.026"></path><path class="link" d="M310.536,-325.68L273.213,-241.573C235.891,-157.466,161.246,10.748,130.62,136.99C99.994,263.232,113.387,347.502,120.083,389.637L126.78,431.772"></path><path class="link" d="M366.559,-261.026L309.061,-195.789C251.563,-130.552,136.566,-0.078,0.558,39.858C-135.45,79.793,-292.47,29.191,-370.98,3.889L-449.49,-21.412"></path><path class="link" d="M409.334,-186.937L364.073,-134.269C318.812,-81.601,228.29,23.736,232.953,37.21C237.617,50.684,337.466,-27.704,387.391,-66.898L437.315,-106.092"></path><path class="link" d="M409.334,-186.937L358.447,-140.762C307.559,-94.587,205.784,-2.237,165.436,-40.709C125.089,-79.18,146.168,-248.473,156.708,-333.119L167.248,-417.766"></path><path class="link" d="M409.334,-186.937L345.598,-132.504C281.862,-78.072,154.389,30.792,11.252,58.38C-131.886,85.967,-290.688,32.278,-370.089,5.433L-449.49,-21.412"></path><path class="link" d="M437.315,-106.092L377.972,-53.671C318.628,-1.25,199.941,103.592,119.926,195.935C39.911,288.277,-1.432,368.12,-22.104,408.041L-42.775,447.962"></path><path class="link" d="M437.315,-106.092L374.567,-54.67C311.819,-3.249,186.322,99.594,79.069,183.938C-28.184,268.283,-117.193,334.129,-161.697,367.053L-206.202,399.976"></path><path class="link" d="M449.49,-21.412L380.152,7.117C310.813,35.646,172.135,92.704,24.335,78.591C-123.466,64.478,-280.391,-20.807,-358.853,-63.449L-437.315,-106.092"></path><path class="link" d="M449.49,-21.412L379.898,8.881C310.306,39.175,171.121,99.761,21.291,99.761C-128.539,99.761,-289.015,39.175,-369.253,8.881L-449.49,-21.412"></path><path class="link" d="M445.42,64.042L377.666,87.007C309.913,109.971,174.406,155.901,35.218,182.727C-103.971,209.554,-246.841,217.277,-318.276,221.138L-389.711,225"></path><path class="link" d="M445.42,64.042L376.675,80.109C307.93,96.176,170.439,128.31,23.317,99.955C-123.806,71.599,-280.56,-17.246,-358.938,-61.669L-437.315,-106.092"></path><path class="link" d="M425.25,147.181L359.193,152.887C293.136,158.594,161.021,170.008,15.231,141.909C-130.559,113.81,-290.025,46.199,-369.758,12.394L-449.49,-21.412"></path><path class="link" d="M340.087,294.687L286.45,278.883C232.812,263.078,125.536,231.469,-6.06,178.786C-137.656,126.103,-293.573,52.345,-371.532,15.467L-449.49,-21.412"></path><path class="link" d="M278.172,353.724L233.817,327.546C189.462,301.367,100.753,249.011,-18.495,172.375C-137.743,95.739,-287.529,-5.176,-362.422,-55.634L-437.315,-106.092"></path><path class="link" d="M206.202,399.976L173.335,373.95C140.467,347.925,74.732,295.874,-24.587,266.711C-123.906,237.548,-256.808,231.274,-323.26,228.137L-389.711,225"></path><path class="link" d="M126.78,431.772L104.503,394.212C82.226,356.651,37.673,281.531,-56.343,191.887C-150.359,102.243,-293.837,-1.924,-365.576,-54.008L-437.315,-106.092"></path><path class="link" d="M42.775,447.962L33.741,414.939C24.707,381.915,6.638,315.868,-65.443,278.708C-137.524,241.547,-263.618,233.274,-326.665,229.137L-389.711,225"></path><path class="link" d="M42.775,447.962L32.749,408.041C22.723,368.12,2.671,288.277,-77.344,195.935C-157.359,103.592,-297.337,-1.25,-367.326,-53.671L-437.315,-106.092"></path><path class="link" d="M-126.78,431.772L-111.087,401.109C-95.395,370.447,-64.01,309.122,-107.832,274.66C-151.654,240.198,-270.683,232.599,-330.197,228.799L-389.711,225"></path><path class="link" d="M-126.78,431.772L-112.079,394.212C-97.378,356.651,-67.977,281.531,-119.733,191.887C-171.489,102.243,-304.402,-1.924,-370.859,-54.008L-437.315,-106.092"></path><path class="link" d="M-206.202,399.976L-176.603,376.632C-147.005,353.288,-87.808,306.601,-99.803,298.892C-111.798,291.183,-194.985,322.454,-236.578,338.089L-278.172,353.724"></path><path class="link" d="M-206.202,399.976L-179.919,367.053C-153.636,334.129,-101.07,268.283,-139.589,183.938C-178.107,99.594,-307.711,-3.249,-372.513,-54.67L-437.315,-106.092"></path><path class="link" d="M-206.202,399.976L-179.336,365.368C-152.47,330.761,-98.738,261.546,-132.593,163.727C-166.449,65.908,-287.892,-60.514,-348.613,-123.726L-409.334,-186.937"></path><path class="link" d="M-278.172,353.724L-241.562,331.09C-204.952,308.456,-131.732,263.189,-159.607,214.908C-187.482,166.628,-316.451,115.335,-380.935,89.688L-445.42,64.042"></path><path class="link" d="M-278.172,353.724L-240.81,325.861C-203.448,297.999,-128.725,242.274,-150.586,152.164C-172.446,62.054,-290.89,-62.442,-350.112,-124.689L-409.334,-186.937"></path><path class="link" d="M-340.087,294.687L-293.288,284.016C-246.488,273.345,-152.888,252.003,-161.159,240.389C-169.43,228.774,-279.571,226.887,-334.641,225.944L-389.711,225"></path><path class="link" d="M-340.087,294.687L-294.279,277.119C-248.471,259.55,-156.855,224.412,-173.06,157.616C-189.265,90.819,-313.29,-7.636,-375.303,-56.864L-437.315,-106.092"></path><path class="link"></path><path class="link" d="M-389.711,225L-336.415,222.871C-283.119,220.741,-176.527,216.482,-182.45,203.512C-188.373,190.542,-306.812,168.861,-366.031,158.021L-425.25,147.181"></path><path class="link" d="M-389.711,225L-336.667,217.594C-283.622,210.188,-177.532,195.376,-185.466,140.194C-193.4,85.012,-315.358,-10.54,-376.336,-58.316L-437.315,-106.092"></path><path class="link" d="M-389.711,225L-336.084,215.91C-282.456,206.819,-175.2,188.639,-178.471,119.983C-181.741,51.327,-295.538,-67.805,-352.436,-127.371L-409.334,-186.937"></path><path class="link" d="M-389.711,225L-335.192,214.366C-280.674,203.732,-171.636,182.465,-167.777,101.461C-163.918,20.456,-265.239,-120.285,-315.899,-190.655L-366.559,-261.026"></path></g><g><text class="node module-1" dy="0.31em" transform="rotate(-79.0909090909091)translate(460,0)" style="text-anchor: start;">program</text><text class="node module-1" dy="0.31em" transform="rotate(-68.18181818181819)translate(460,0)" style="text-anchor: start;">statement</text><text class="node module-1" dy="0.31em" transform="rotate(-57.27272727272727)translate(460,0)" style="text-anchor: start;">processDeclaration</text><text class="node module-1" dy="0.31em" transform="rotate(-46.36363636363636)translate(460,0)" style="text-anchor: start;">processStatement</text><text class="node module-1" dy="0.31em" transform="rotate(-35.45454545454545)translate(460,0)" style="text-anchor: start;">moveStatement</text><text class="node module-1" dy="0.31em" transform="rotate(-24.545454545454547)translate(460,0)" style="text-anchor: start;">ambientDeclaration</text><text class="node module-1" dy="0.31em" transform="rotate(-13.63636363636364)translate(460,0)" style="text-anchor: start;">conditions</text><text class="node module-1" dy="0.31em" transform="rotate(-2.7272727272727195)translate(460,0)" style="text-anchor: start;">movementStatement</text><text class="node module-1" dy="0.31em" transform="rotate(8.181818181818173)translate(460,0)" style="text-anchor: start;">communicationStatement</text><text class="node module-1" dy="0.31em" transform="rotate(19.090909090909093)translate(460,0)" style="text-anchor: start;">inStatement</text><text class="node module-1" dy="0.31em" transform="rotate(30)translate(460,0)" style="text-anchor: start;">outStatement</text><text class="node module-1" dy="0.31em" transform="rotate(40.90909090909091)translate(460,0)" style="text-anchor: start;">openStatement</text><text class="node module-1" dy="0.31em" transform="rotate(51.81818181818181)translate(460,0)" style="text-anchor: start;">callStatement</text><text class="node module-1" dy="0.31em" transform="rotate(62.72727272727272)translate(460,0)" style="text-anchor: start;">printStatement</text><text class="node module-1" dy="0.31em" transform="rotate(73.63636363636363)translate(460,0)" style="text-anchor: start;">printConditionStatement</text><text class="node module-1" dy="0.31em" transform="rotate(84.54545454545456)translate(460,0)" style="text-anchor: start;">modifyConditionStatement</text><text class="node module-1" dy="0.31em" transform="rotate(95.45454545454544)translate(460,0)rotate(180)" style="text-anchor: end;">conditionsBlock</text><text class="node module-1" dy="0.31em" transform="rotate(106.36363636363635)translate(460,0)rotate(180)" style="text-anchor: end;">variableDeclaration</text><text class="node module-1" dy="0.31em" transform="rotate(117.27272727272728)translate(460,0)rotate(180)" style="text-anchor: end;">conditionsVariableDeclaration</text><text class="node module-1" dy="0.31em" transform="rotate(128.1818181818182)translate(460,0)rotate(180)" style="text-anchor: end;">restriction</text><text class="node module-1" dy="0.31em" transform="rotate(139.0909090909091)translate(460,0)rotate(180)" style="text-anchor: end;">assignmentStatement</text><text class="node module-1" dy="0.31em" transform="rotate(150)translate(460,0)rotate(180)" style="text-anchor: end;">expression</text><text class="node module-1" dy="0.31em" transform="rotate(160.90909090909093)translate(460,0)rotate(180)" style="text-anchor: end;">operator</text><text class="node module-1" dy="0.31em" transform="rotate(171.8181818181818)translate(460,0)rotate(180)" style="text-anchor: end;">comparator</text><text class="node module-1" dy="0.31em" transform="rotate(182.72727272727275)translate(460,0)rotate(180)" style="text-anchor: end;">AMBIENTID</text><text class="node module-1" dy="0.31em" transform="rotate(193.63636363636363)translate(460,0)rotate(180)" style="text-anchor: end;">ID</text><text class="node module-1" dy="0.31em" transform="rotate(204.54545454545456)translate(460,0)rotate(180)" style="text-anchor: end;">INT</text><text class="node module-1" dy="0.31em" transform="rotate(215.45454545454544)translate(460,0)rotate(180)" style="text-anchor: end;">STRING</text><text class="node module-1" dy="0.31em" transform="rotate(226.36363636363637)translate(460,0)rotate(180)" style="text-anchor: end;">WS</text><text class="node module-1" dy="0.31em" transform="rotate(237.27272727272725)translate(460,0)rotate(180)" style="text-anchor: end;">COMMENT</text><text class="node module-2" dy="0.31em" transform="rotate(259.0909090909091)translate(460,0)rotate(180)" style="text-anchor: end;">EOF</text></g></g><defs><style type="text/css"><![CDATA[
svg.railroad-diagram path { stroke-width: 2; stroke: darkgray; fill: rgba(0, 0, 0, 0);}/* All text except comments. */svg.railroad-diagram text { font: bold 12px Hack, "Source Code Pro", monospace; text-anchor: middle; fill: #404040;}/* Comment text */svg.railroad-diagram text.comment { font: italic 10px Hack, "Source Code Pro", monospace; fill: #404040;}/* The terminal boxes. */svg.railroad-diagram g.terminal rect { stroke-width: 2; stroke: #404040; fill: rgba(200, 200, 200, 1);}svg.railroad-diagram g.non-terminal rect { /* The non-terminal boxes. */ stroke-width: 2; stroke: #404040; fill: rgba(255, 255, 255, 1);}/* Multiple choice text, not working atm. */svg.railroad-diagram text.diagram-text { font-size: 12px Hack, "Source Code Pro", monospace; fill: red;}/* Multiple choice text, not working atm. */svg.railroad-diagram path.diagram-text { stroke-width: 1; stroke: red; fill: red; cursor: help;}
 ]]>
</style></defs></svg>