<?xml version="1.0" encoding="UTF-8" standalone="no"?>
<!DOCTYPE svg PUBLIC "-//W3C//DTD SVG 1.1//EN" "http://www.w3.org/Graphics/SVG/1.1/DTD/svg11.dtd">
<svg class="railroad-diagram" width="532.5" height="100" viewBox="0 0 532.5 100" id="communicationStatement" xmlns="http://www.w3.org/2000/svg" xmlns:xlink="http://www.w3.org/1999/xlink"><g transform="translate(.5 .5)"><g><path d="M20 21v20m0 -10h20"></path></g><g><path d="M40 31h0"></path><path d="M492.5 31h0"></path><path d="M40 31h20"></path><g><path d="M60 31h0"></path><g><path d="M60 31h10"></path><path d="M462.5 31h10"></path><g class="terminal "><path d="M70 31h0"></path><path d="M141 31h0"></path><rect x="70" y="20" width="71" height="22"></rect><text x="105.5" y="35">'send'</text></g><path d="M141 31h10"></path><path d="M151 31h10"></path><g class="non-terminal "><path d="M161 31h0"></path><path d="M266 31h0"></path><rect x="161" y="20" width="105" height="22" rx="10" ry="10"></rect><text x="213.5" y="35">expression</text></g><path d="M266 31h10"></path><path d="M276 31h10"></path><g class="terminal "><path d="M286 31h0"></path><path d="M340 31h0"></path><rect x="286" y="20" width="54" height="22"></rect><text x="313" y="35">'to'</text></g><path d="M340 31h10"></path><path d="M350 31h10"></path><g class="terminal "><path d="M360 31h0"></path><path d="M397 31h0"></path><rect x="360" y="20" width="37" height="22"></rect><text x="378.5" y="35">ID</text></g><path d="M397 31h10"></path><path d="M407 31h10"></path><g class="terminal "><path d="M417 31h0"></path><path d="M462.5 31h0"></path><rect x="417" y="20" width="45.5" height="22"></rect><text x="439.75" y="35">';'</text></g></g><path d="M472.5 31h0"></path></g><path d="M472.5 31h20"></path><path d="M40 31a10 10 0 0 1 10 10v18a10 10 0 0 0 10 10"></path><g><path d="M60 69h12.75"></path><g><path d="M72.75 69h10"></path><path d="M449.75 69h10"></path><g class="terminal "><path d="M82.75 69h0"></path><path d="M179.25 69h0"></path><rect x="82.75" y="58" width="96.5" height="22"></rect><text x="131" y="73">'receive'</text></g><path d="M179.25 69h10"></path><path d="M189.25 69h10"></path><g class="terminal "><path d="M199.25 69h0"></path><path d="M236.25 69h0"></path><rect x="199.25" y="58" width="37" height="22"></rect><text x="217.75" y="73">ID</text></g><path d="M236.25 69h10"></path><path d="M246.25 69h10"></path><g class="terminal "><path d="M256.25 69h0"></path><path d="M327.25 69h0"></path><rect x="256.25" y="58" width="71" height="22"></rect><text x="291.75" y="73">'from'</text></g><path d="M327.25 69h10"></path><path d="M337.25 69h10"></path><g class="terminal "><path d="M347.25 69h0"></path><path d="M384.25 69h0"></path><rect x="347.25" y="58" width="37" height="22"></rect><text x="365.75" y="73">ID</text></g><path d="M384.25 69h10"></path><path d="M394.25 69h10"></path><g class="terminal "><path d="M404.25 69h0"></path><path d="M449.75 69h0"></path><rect x="404.25" y="58" width="45.5" height="22"></rect><text x="427" y="73">';'</text></g></g><path d="M459.75 69h12.75"></path></g><path d="M472.5 69a10 10 0 0 0 10 -10v-18a10 10 0 0 1 10 -10"></path></g><path d="M 492.5 31 h 20 m 0 -10 v 20"></path></g><defs><style type="text/css"><![CDATA[
svg.railroad-diagram path { stroke-width: 2; stroke: darkgray; fill: rgba(0, 0, 0, 0);}/* All text except comments. */svg.railroad-diagram text { font: bold 12px Hack, "Source Code Pro", monospace; text-anchor: middle; fill: #404040;}/* Comment text */svg.railroad-diagram text.comment { font: italic 10px Hack, "Source Code Pro", monospace; fill: #404040;}/* The terminal boxes. */svg.railroad-diagram g.terminal rect { stroke-width: 2; stroke: #404040; fill: rgba(200, 200, 200, 1);}svg.railroad-diagram g.non-terminal rect { /* The non-terminal boxes. */ stroke-width: 2; stroke: #404040; fill: rgba(255, 255, 255, 1);}/* Multiple choice text, not working atm. */svg.railroad-diagram text.diagram-text { font-size: 12px Hack, "Source Code Pro", monospace; fill: red;}/* Multiple choice text, not working atm. */svg.railroad-diagram path.diagram-text { stroke-width: 1; stroke: red; fill: red; cursor: help;}
 ]]>
</style></defs></svg>